<svg width="53" height="19" viewBox="0 0 53 19" fill="none" xmlns="http://www.w3.org/2000/svg">
<g clip-path="url(#clip0_77_136)">
<path fill-rule="evenodd" clip-rule="evenodd" d="M34.4671 12.7014C34.4993 12.7014 34.5309 12.6918 34.5577 12.6737C34.5845 12.6556 34.6054 12.63 34.6177 12.6C34.63 12.5699 34.6333 12.5369 34.627 12.505C34.6207 12.4732 34.6051 12.4439 34.5824 12.4209C34.5596 12.3979 34.5305 12.3823 34.4989 12.376C34.4673 12.3696 34.4345 12.3729 34.4047 12.3853C34.3749 12.3977 34.3495 12.4188 34.3316 12.4458C34.3137 12.4728 34.3041 12.5046 34.3041 12.5371C34.3041 12.5587 34.3083 12.5801 34.3164 12.6C34.3246 12.62 34.3366 12.6381 34.3518 12.6534C34.3669 12.6686 34.3849 12.6807 34.4047 12.689C34.4245 12.6972 34.4457 12.7014 34.4671 12.7014ZM34.9917 12.7014C35.024 12.7014 35.0555 12.6918 35.0823 12.6737C35.1091 12.6556 35.13 12.63 35.1423 12.6C35.1546 12.5699 35.1579 12.5369 35.1516 12.505C35.1453 12.4732 35.1298 12.4439 35.107 12.4209C35.0842 12.3979 35.0551 12.3823 35.0235 12.376C34.9919 12.3696 34.9591 12.3729 34.9294 12.3853C34.8996 12.3977 34.8741 12.4188 34.8562 12.4458C34.8383 12.4728 34.8287 12.5046 34.8287 12.5371C34.8287 12.5807 34.8459 12.6225 34.8765 12.6533C34.907 12.6841 34.9485 12.7014 34.9917 12.7014ZM43.8291 12.7014C43.8614 12.7015 43.8929 12.6919 43.9198 12.6739C43.9466 12.6559 43.9676 12.6302 43.98 12.6002C43.9924 12.5702 43.9956 12.5371 43.9894 12.5053C43.9831 12.4734 43.9676 12.4441 43.9449 12.421C43.9221 12.398 43.893 12.3824 43.8614 12.376C43.8298 12.3696 43.797 12.3729 43.7672 12.3853C43.7374 12.3977 43.7119 12.4188 43.694 12.4458C43.6761 12.4728 43.6665 12.5046 43.6665 12.5371C43.6665 12.5806 43.6836 12.6223 43.7141 12.6531C43.7446 12.6839 43.786 12.7013 43.8291 12.7014ZM44.3538 12.7014C44.386 12.7014 44.4175 12.6918 44.4443 12.6737C44.4711 12.6556 44.492 12.63 44.5044 12.6C44.5167 12.5699 44.5199 12.5369 44.5136 12.505C44.5073 12.4732 44.4918 12.4439 44.469 12.4209C44.4462 12.3979 44.4172 12.3823 44.3856 12.376C44.354 12.3696 44.3212 12.3729 44.2914 12.3853C44.2616 12.3977 44.2362 12.4188 44.2183 12.4458C44.2003 12.4728 44.1908 12.5046 44.1908 12.5371C44.1908 12.5805 44.2078 12.6221 44.2382 12.6529C44.2685 12.6837 44.3097 12.7011 44.3528 12.7014H44.3538ZM47.5694 13.0936L47.5412 12.8845C47.4265 12.9044 47.1626 12.9848 47.1375 12.8027C47.1313 12.757 47.1426 12.7106 47.1692 12.6731C47.1957 12.6356 47.2356 12.6097 47.2804 12.6008C47.3551 12.5924 47.4305 12.6054 47.4981 12.6384L47.566 12.4371C47.4942 12.4072 47.4164 12.3944 47.3388 12.3997C47.2613 12.4051 47.186 12.4284 47.1188 12.468C47.0481 12.5186 46.9983 12.5938 46.9791 12.6791C46.9598 12.7644 46.9725 12.8539 47.0146 12.9304L46.781 12.9379V13.0967C46.9351 13.1031 47.0894 13.1077 47.2438 13.1104C47.2689 13.1101 47.4611 13.1046 47.5694 13.0936ZM27.9356 14.8013C27.9034 14.8013 27.8719 14.8109 27.8451 14.8289C27.8183 14.847 27.7974 14.8727 27.7851 14.9027C27.7727 14.9327 27.7695 14.9657 27.7758 14.9976C27.7821 15.0295 27.7976 15.0587 27.8204 15.0817C27.8432 15.1047 27.8722 15.1203 27.9038 15.1267C27.9355 15.133 27.9682 15.1298 27.998 15.1173C28.0278 15.1049 28.0533 15.0838 28.0712 15.0568C28.0891 15.0298 28.0986 14.998 28.0986 14.9655C28.0986 14.944 28.0944 14.9226 28.0862 14.9027C28.078 14.8827 28.066 14.8646 28.0509 14.8494C28.0358 14.8341 28.0178 14.822 27.998 14.8138C27.9782 14.8055 27.957 14.8013 27.9356 14.8013ZM28.4603 14.8013C28.428 14.8013 28.3965 14.8109 28.3697 14.8289C28.3429 14.847 28.322 14.8727 28.3097 14.9027C28.2973 14.9327 28.2941 14.9657 28.3004 14.9976C28.3067 15.0295 28.3222 15.0587 28.345 15.0817C28.3678 15.1047 28.3968 15.1203 28.4285 15.1267C28.4601 15.133 28.4929 15.1298 28.5226 15.1173C28.5524 15.1049 28.5779 15.0838 28.5958 15.0568C28.6137 15.0298 28.6233 14.998 28.6233 14.9655C28.6233 14.9221 28.6062 14.8805 28.5759 14.8497C28.5455 14.8189 28.5043 14.8015 28.4613 14.8013H28.4603ZM47.8424 14.8013C47.8102 14.8013 47.7787 14.8109 47.7519 14.8289C47.7251 14.847 47.7042 14.8727 47.6918 14.9027C47.6795 14.9327 47.6763 14.9657 47.6826 14.9976C47.6889 15.0295 47.7044 15.0587 47.7272 15.0817C47.75 15.1047 47.779 15.1203 47.8106 15.1267C47.8422 15.133 47.875 15.1298 47.9048 15.1173C47.9346 15.1049 47.96 15.0838 47.9779 15.0568C47.9959 15.0298 48.0054 14.998 48.0054 14.9655C48.0054 14.944 48.0012 14.9226 47.993 14.9027C47.9848 14.8827 47.9728 14.8646 47.9577 14.8494C47.9425 14.8341 47.9246 14.822 47.9048 14.8138C47.885 14.8055 47.8638 14.8013 47.8424 14.8013ZM48.367 14.8013C48.3348 14.8012 48.3032 14.8108 48.2764 14.8288C48.2495 14.8468 48.2286 14.8724 48.2162 14.9024C48.2038 14.9324 48.2006 14.9655 48.2068 14.9974C48.2131 15.0293 48.2285 15.0586 48.2513 15.0816C48.2741 15.1046 48.3032 15.1203 48.3348 15.1267C48.3664 15.133 48.3992 15.1298 48.429 15.1174C48.4588 15.1049 48.4843 15.0839 48.5022 15.0569C48.5201 15.0298 48.5297 14.9981 48.5297 14.9655C48.5297 14.922 48.5126 14.8803 48.4821 14.8495C48.4516 14.8187 48.4102 14.8013 48.367 14.8013ZM15.6099 15.1932C15.5777 15.1932 15.5462 15.2028 15.5194 15.2208C15.4926 15.2389 15.4717 15.2646 15.4593 15.2946C15.447 15.3246 15.4438 15.3576 15.45 15.3895C15.4563 15.4214 15.4719 15.4506 15.4946 15.4736C15.5174 15.4966 15.5465 15.5122 15.5781 15.5186C15.6097 15.5249 15.6425 15.5217 15.6723 15.5092C15.7021 15.4968 15.7275 15.4757 15.7454 15.4487C15.7633 15.4217 15.7729 15.3899 15.7729 15.3575C15.7729 15.3358 15.7688 15.3144 15.7606 15.2945C15.7524 15.2745 15.7404 15.2563 15.7253 15.2411C15.7101 15.2258 15.6922 15.2136 15.6724 15.2054C15.6526 15.1971 15.6313 15.1932 15.6099 15.1932ZM16.1345 15.1932C16.1023 15.1931 16.0707 15.2027 16.0439 15.2207C16.017 15.2387 15.9961 15.2643 15.9837 15.2943C15.9713 15.3244 15.968 15.3574 15.9743 15.3893C15.9805 15.4212 15.996 15.4505 16.0188 15.4735C16.0416 15.4965 16.0706 15.5122 16.1023 15.5186C16.1339 15.5249 16.1667 15.5217 16.1965 15.5093C16.2263 15.4968 16.2518 15.4758 16.2697 15.4488C16.2876 15.4217 16.2972 15.39 16.2972 15.3575C16.2973 15.314 16.2803 15.2723 16.2499 15.2414C16.2196 15.2106 16.1783 15.1931 16.1352 15.1928L16.1345 15.1932ZM24.8208 13.3493C24.8531 13.3493 24.8846 13.3397 24.9114 13.3216C24.9382 13.3036 24.9591 13.2779 24.9714 13.2479C24.9838 13.2179 24.987 13.1848 24.9807 13.153C24.9744 13.1211 24.9589 13.0918 24.9361 13.0689C24.9133 13.0459 24.8843 13.0302 24.8526 13.0239C24.821 13.0175 24.7883 13.0208 24.7585 13.0332C24.7287 13.0457 24.7032 13.0667 24.6853 13.0937C24.6674 13.1208 24.6579 13.1525 24.6579 13.185C24.6579 13.2285 24.6752 13.2702 24.7057 13.301C24.7363 13.3317 24.7777 13.3493 24.8208 13.3493ZM17.3885 13.0303C17.4208 13.0303 17.4523 13.0207 17.4791 13.0026C17.5059 12.9846 17.5268 12.9589 17.5391 12.9289C17.5514 12.8989 17.5547 12.8658 17.5484 12.834C17.5421 12.8021 17.5266 12.7728 17.5038 12.7498C17.481 12.7269 17.4519 12.7112 17.4203 12.7049C17.3887 12.6985 17.3559 12.7018 17.3262 12.7142C17.2964 12.7267 17.2709 12.7477 17.253 12.7747C17.2351 12.8018 17.2255 12.8335 17.2255 12.866C17.2255 12.8876 17.2298 12.9089 17.2379 12.9288C17.2461 12.9488 17.2582 12.9668 17.2733 12.9821C17.2884 12.9973 17.3064 13.0094 17.3262 13.0176C17.3459 13.0258 17.3671 13.0304 17.3885 13.0303ZM51.6377 12.4443V14.4617H51.9185V12.444L51.6377 12.4443ZM42.1616 14.4617H42.4424V12.444H42.1616V14.4617ZM26.0056 14.4617H26.2881V12.444H26.0069V14.4614L26.0056 14.4617ZM50.9005 14.0482C50.9004 14.0994 50.8802 14.1485 50.8443 14.1846C50.8084 14.2208 50.7598 14.2412 50.709 14.2413H49.926C49.9311 14.2355 49.9362 14.23 49.9406 14.2238C49.9851 14.1633 50.0144 14.0928 50.0259 14.0183C50.0373 13.9438 50.0307 13.8676 50.0064 13.7963C49.9725 13.6697 49.8638 13.2829 49.5884 13.2778H49.582C49.2594 13.2778 49.0614 13.822 49.0248 13.9319C48.9914 14.0325 48.9654 14.1354 48.947 14.2399C48.8258 14.243 48.2519 14.2399 48.2519 14.2399C48.2783 14.1795 48.2919 14.1142 48.2917 14.0482V13.3568H48.0105V14.0482C48.0105 14.0994 47.9903 14.1485 47.9544 14.1847C47.9185 14.2209 47.8698 14.2413 47.819 14.2413H47.6492C47.5984 14.2412 47.5498 14.2208 47.5139 14.1846C47.478 14.1485 47.4578 14.0994 47.4577 14.0482V13.3568H47.1769V14.0482C47.1768 14.0994 47.1566 14.1485 47.1207 14.1846C47.0848 14.2208 47.0361 14.2412 46.9854 14.2413H44.5904C44.5397 14.2412 44.491 14.2208 44.4551 14.1846C44.4192 14.1485 44.399 14.0994 44.3989 14.0482V13.0016H44.1185V13.1385C43.9876 13.1778 43.8596 13.2262 43.7354 13.2833C43.6072 13.3234 43.4899 13.3929 43.3927 13.4863C43.2955 13.5797 43.2211 13.6945 43.1752 13.8217C43.164 13.8699 43.1649 13.9201 43.1777 13.9678C43.1905 14.0156 43.2148 14.0595 43.2485 14.0955C43.3309 14.1608 43.4253 14.2089 43.5264 14.2371C43.6274 14.2652 43.733 14.2728 43.837 14.2594C43.9437 14.2586 44.0503 14.2512 44.1562 14.2372C44.1926 14.323 44.2531 14.3962 44.3304 14.4477C44.4076 14.4991 44.4982 14.5266 44.5908 14.5267H46.984C47.0722 14.4384 47.1916 14.3888 47.3159 14.3888C47.4403 14.3888 47.5596 14.4384 47.6479 14.5267H47.8176C47.9384 14.5267 48.0544 14.4799 48.1419 14.396V14.524C48.1419 14.524 48.8149 14.5271 48.9209 14.524C48.9097 14.6594 48.9408 14.7949 49.0099 14.9116C49.0791 15.0282 49.1827 15.1201 49.3063 15.1743C49.3859 15.2067 49.471 15.2231 49.5569 15.2226C49.6613 15.2281 49.7652 15.2048 49.8575 15.1554C49.9499 15.106 50.0272 15.0322 50.0811 14.9419C50.113 14.8737 50.1244 14.7976 50.1139 14.723C50.1033 14.6483 50.0713 14.5784 50.0217 14.522H50.7073C50.8326 14.5219 50.9528 14.4716 51.0414 14.3823C51.1301 14.293 51.1799 14.1718 51.18 14.0455V12.444H50.8988V14.0482H50.9005ZM43.4529 13.8987C43.4495 13.8952 43.4475 13.8932 43.4505 13.8771C43.4845 13.706 43.8268 13.5304 44.1185 13.4321V13.9524C43.896 13.9986 43.6651 13.9802 43.4529 13.8987ZM49.2906 14.0222C49.3293 13.8385 49.4321 13.6749 49.5803 13.5612C49.6705 13.6408 49.7261 13.7529 49.7351 13.8733C49.7474 13.9021 49.7521 13.9336 49.7489 13.9647C49.7457 13.9959 49.7346 14.0257 49.7168 14.0513C49.5802 14.1635 49.4091 14.224 49.2329 14.2225C49.2488 14.1545 49.268 14.0875 49.2906 14.0215V14.0222ZM49.8299 14.8211C49.7795 14.8792 49.712 14.9196 49.6373 14.9366C49.5626 14.9535 49.4845 14.946 49.4143 14.9152C49.3413 14.879 49.2814 14.8208 49.2428 14.7486C49.2041 14.6765 49.1887 14.5941 49.1986 14.5127C49.3477 14.5023 49.495 14.4733 49.637 14.4265L49.582 14.5244C49.6488 14.5415 49.7086 14.5792 49.753 14.6323C49.7975 14.6854 49.8244 14.7512 49.8299 14.8204V14.8211ZM22.6887 14.4614H22.9699V12.444H22.6887V14.4614ZM21.9505 14.0482C21.9505 14.0994 21.9304 14.1484 21.8946 14.1846C21.8587 14.2208 21.8101 14.2412 21.7594 14.2413H21.2055C21.2103 14.2314 21.215 14.2214 21.2191 14.2108C21.2879 14.0026 21.2731 13.7756 21.1777 13.5783C21.1404 13.4837 21.0771 13.4017 20.9953 13.342C20.9134 13.2823 20.8164 13.2473 20.7155 13.2412H20.7128C20.6101 13.2473 20.5112 13.2827 20.4276 13.3433C20.344 13.4039 20.2793 13.4872 20.2408 13.5834C20.1961 13.6786 20.1579 13.7767 20.1264 13.8771C20.0395 14.1352 20.0038 14.2423 19.7227 14.2423H19.451C19.4188 14.0245 19.3367 13.8173 19.2114 13.6369C19.0861 13.4566 18.9208 13.3081 18.7288 13.2032L18.5994 13.4547C18.7453 13.5364 18.8717 13.6491 18.97 13.7851C19.0682 13.921 19.1358 14.077 19.1682 14.242H18.2894V14.5254H19.7223C19.8777 14.5353 20.0314 14.4884 20.1553 14.3933C20.3165 14.4854 20.4997 14.5314 20.685 14.5264C20.7741 14.5289 20.8629 14.5157 20.9475 14.4874C20.9632 14.4813 20.9786 14.4743 20.9937 14.4665V14.5264H21.759C21.8843 14.5262 22.0044 14.476 22.0929 14.3866C22.1815 14.2973 22.2313 14.1762 22.2313 14.05V12.444H21.9502V14.0482H21.9505ZM20.958 14.1068C20.9488 14.1329 20.9341 14.1567 20.9148 14.1765C20.8956 14.1963 20.8723 14.2116 20.8466 14.2214C20.6691 14.2589 20.4844 14.2379 20.3196 14.1615C20.3472 14.0977 20.3716 14.0324 20.3926 13.9661C20.4202 13.8777 20.4537 13.7912 20.4928 13.7073C20.5095 13.6596 20.5388 13.6173 20.5776 13.5851C20.6163 13.5528 20.6631 13.5319 20.7128 13.5246C20.7608 13.5312 20.8059 13.5512 20.8431 13.5824C20.8803 13.6135 20.9081 13.6546 20.9234 13.7008C20.9847 13.8268 20.9968 13.9716 20.957 14.1061L20.958 14.1068ZM37.4352 13.2422H37.4328C37.3301 13.2483 37.2312 13.2837 37.1476 13.3443C37.064 13.4049 36.9993 13.4882 36.9608 13.5845C36.9161 13.6795 36.8777 13.7775 36.8461 13.8778C36.7595 14.1359 36.7235 14.2427 36.4427 14.2427H35.297C35.2462 14.2426 35.1976 14.2222 35.1617 14.186C35.1258 14.1498 35.1056 14.1008 35.1055 14.0496V13.0016H34.8243V13.1385C34.6936 13.1779 34.5658 13.2262 34.4416 13.2833C34.3134 13.3234 34.1961 13.3929 34.0989 13.4863C34.0017 13.5797 33.9273 13.6945 33.8814 13.8217C33.8702 13.8699 33.871 13.9201 33.8838 13.9679C33.8966 14.0157 33.921 14.0595 33.9547 14.0955C34.037 14.1608 34.1314 14.2089 34.2324 14.2371C34.3334 14.2652 34.4389 14.2728 34.5428 14.2594C34.6497 14.2587 34.7564 14.2512 34.8623 14.2372C34.8988 14.323 34.9593 14.3962 35.0366 14.4477C35.1139 14.4991 35.2044 14.5266 35.297 14.5267H36.441C36.5965 14.5368 36.7504 14.4897 36.8743 14.3943C37.1169 14.5259 37.4001 14.5596 37.6665 14.4888C37.7284 14.465 37.7846 14.4284 37.8314 14.3812C37.8782 14.334 37.9146 14.2773 37.9381 14.2149C38.007 14.0068 37.9923 13.7797 37.897 13.5824C37.8603 13.4871 37.7973 13.4044 37.7155 13.344C37.6337 13.2836 37.5364 13.248 37.4352 13.2415V13.2422ZM34.1588 13.899C34.1557 13.8956 34.1533 13.8935 34.1567 13.8774C34.1907 13.7063 34.5326 13.5307 34.8243 13.4325V13.9527C34.6019 13.9988 34.371 13.9799 34.1588 13.8983V13.899ZM37.6777 14.1075C37.6685 14.1337 37.6538 14.1575 37.6346 14.1774C37.6154 14.1973 37.592 14.2126 37.5663 14.2225C37.3888 14.26 37.2041 14.2391 37.0393 14.1629C37.0668 14.099 37.0912 14.0338 37.1123 13.9675C37.1405 13.8789 37.1745 13.7923 37.2142 13.7084C37.2308 13.6606 37.2601 13.6183 37.2989 13.586C37.3377 13.5538 37.3845 13.5329 37.4342 13.5256C37.4821 13.5322 37.5272 13.5523 37.5644 13.5834C37.6016 13.6146 37.6294 13.6556 37.6447 13.7019C37.7058 13.8279 37.7176 13.9724 37.6777 14.1068V14.1075ZM32.7615 14.0482C32.7614 14.0994 32.7412 14.1485 32.7053 14.1846C32.6694 14.2208 32.6207 14.2412 32.57 14.2413H32.3982C32.3474 14.2412 32.2987 14.2208 32.2628 14.1846C32.2269 14.1485 32.2067 14.0994 32.2066 14.0482V12.444H31.9248V14.0482C31.9247 14.0994 31.9045 14.1485 31.8686 14.1846C31.8327 14.2208 31.7841 14.2412 31.7333 14.2413H31.3306C31.3422 14.0903 31.3224 13.9385 31.2724 13.7957C31.2224 13.6528 31.1433 13.5221 31.0403 13.412C30.7717 13.1884 30.4087 13.3295 30.1496 13.491C29.9986 13.5877 29.8583 13.7005 29.7312 13.8275V12.4447H29.4501V14.2413H28.2956C28.3225 14.1805 28.3364 14.1148 28.3363 14.0482V13.3568H28.0555V14.0482C28.0554 14.0994 28.0352 14.1485 27.9993 14.1846C27.9634 14.2208 27.9148 14.2412 27.864 14.2413H27.2728C27.2221 14.2412 27.1734 14.2208 27.1375 14.1846C27.1016 14.1485 27.0814 14.0994 27.0813 14.0482V13.3568H26.8002V14.459C26.8002 14.5634 26.759 14.6636 26.6858 14.7374C26.6126 14.8113 26.5133 14.8528 26.4097 14.8529V15.1367C26.5836 15.1364 26.7506 15.0683 26.8758 14.9466C27.0009 14.825 27.0745 14.6591 27.081 14.484C27.1413 14.5111 27.2067 14.5251 27.2728 14.525H27.866C27.9575 14.5251 28.047 14.4982 28.1234 14.4477V14.525H31.7343C31.8226 14.4367 31.9419 14.3871 32.0662 14.3871C32.1906 14.3871 32.3099 14.4367 32.3982 14.525H32.57C32.6953 14.5249 32.8153 14.4746 32.9039 14.3853C32.9924 14.2959 33.0422 14.1749 33.0423 14.0486V12.444H32.7615V14.0482ZM29.7323 14.1379C29.8493 14.0236 29.976 13.9197 30.1109 13.8275C30.2599 13.7116 30.4322 13.6299 30.6158 13.5879C30.6926 13.57 30.7733 13.5832 30.8406 13.6245C30.8952 13.6681 30.9367 13.7262 30.9605 13.7922C31.0139 13.9362 31.0426 14.0883 31.0453 14.242H29.7323V14.1393V14.1379ZM17.6744 14.0482C17.6744 14.0994 17.6541 14.1485 17.6182 14.1846C17.5823 14.2208 17.5337 14.2412 17.4829 14.2413H17.3576C17.3057 14.242 17.2555 14.2221 17.2179 14.1861C17.1802 14.15 17.158 14.1006 17.1559 14.0482V13.6717C17.1575 13.6175 17.1467 13.5637 17.1244 13.5143C17.1021 13.4649 17.0688 13.4214 17.0272 13.387C16.974 13.3481 16.9128 13.3218 16.8482 13.31C16.7835 13.2981 16.7171 13.301 16.6537 13.3185C16.5313 13.3427 16.4205 13.4075 16.3389 13.5025C16.2572 13.5975 16.2094 13.7173 16.2031 13.8429V14.4932C16.1986 14.5281 16.184 14.5608 16.1611 14.5874C16.1382 14.6139 16.108 14.6331 16.0744 14.6424C15.9568 14.6846 15.8301 14.6942 15.7076 14.6701C15.5851 14.646 15.4712 14.5892 15.378 14.5055C15.2848 14.3921 15.2281 14.2527 15.2154 14.106C15.2027 13.9593 15.2345 13.8121 15.3067 13.6841L15.0445 13.5814C14.8051 14.2115 15.0286 14.5579 15.1827 14.7082C15.3629 14.8762 15.6002 14.968 15.8456 14.9645C15.9619 14.966 16.0773 14.9441 16.1851 14.9002C16.2708 14.8709 16.3454 14.8158 16.399 14.7423C16.4526 14.6689 16.4825 14.5806 16.4846 14.4894V13.8429C16.4903 13.781 16.5163 13.7227 16.5585 13.6774C16.6007 13.632 16.6566 13.6021 16.7176 13.5923C16.7399 13.5849 16.7635 13.5823 16.7869 13.5848C16.8104 13.5872 16.833 13.5945 16.8534 13.6064C16.862 13.6142 16.8686 13.624 16.8726 13.635C16.8766 13.646 16.8778 13.6578 16.8761 13.6693V14.0458C16.8791 14.173 16.9313 14.294 17.0215 14.383C17.1117 14.472 17.2328 14.522 17.359 14.5223H17.4839C17.6093 14.5222 17.7295 14.472 17.8181 14.3826C17.9067 14.2933 17.9565 14.1722 17.9566 14.0458V13.3544H17.6755V14.0482H17.6744ZM25.3 14.4932C25.2955 14.528 25.2809 14.5608 25.2581 14.5873C25.2353 14.6139 25.2052 14.633 25.1716 14.6424C25.054 14.6847 24.9272 14.6942 24.8046 14.6701C24.682 14.646 24.5681 14.5892 24.4748 14.5055C24.3818 14.392 24.3252 14.2526 24.3125 14.1059C24.2998 13.9592 24.3317 13.8121 24.4039 13.6841L24.1414 13.5814C23.9037 14.2115 24.1254 14.5579 24.2799 14.7082C24.4599 14.8762 24.6971 14.9679 24.9424 14.9645C25.0587 14.966 25.1741 14.9441 25.282 14.9002C25.3677 14.8709 25.4424 14.8159 25.4961 14.7424C25.5497 14.6689 25.5796 14.5806 25.5818 14.4894V13.3531H25.3V14.4932ZM41.4244 14.0482C41.4244 14.0993 41.4043 14.1482 41.3686 14.1844C41.333 14.2206 41.2845 14.241 41.2339 14.2413H41.132C40.8969 14.2492 40.6617 14.2278 40.4318 14.1776L40.4529 14.1598C40.546 14.0902 40.6224 14.0002 40.6762 13.8967C40.7301 13.7932 40.7601 13.6787 40.7639 13.5619C40.7498 13.4944 40.7174 13.4323 40.6703 13.3823C40.6232 13.3324 40.5632 13.2967 40.497 13.2792L40.4818 13.273L40.4661 13.2709C40.2141 13.2386 39.9591 13.2362 39.7065 13.2637H39.6902L39.675 13.2692C39.619 13.2844 39.5681 13.3144 39.5277 13.3562C39.4872 13.398 39.4587 13.45 39.4451 13.5068C39.4481 13.6284 39.4773 13.7479 39.5308 13.8569C39.5843 13.966 39.6607 14.062 39.7548 14.1383C39.7717 14.155 39.7887 14.1725 39.8084 14.1872C39.6363 14.2264 39.4601 14.2438 39.2838 14.2389H38.8716C38.8208 14.2388 38.7722 14.2184 38.7364 14.1822C38.7005 14.146 38.6804 14.097 38.6804 14.0458V12.444H38.3992V14.0482C38.3994 14.1745 38.4492 14.2955 38.5377 14.3848C38.6263 14.4741 38.7463 14.5244 38.8716 14.5247H39.2841C39.5722 14.54 39.8599 14.4891 40.1255 14.3758C40.4486 14.4907 40.7908 14.5412 41.133 14.5244H41.2349C41.3596 14.5234 41.4788 14.4728 41.5667 14.3836C41.6546 14.2945 41.704 14.1739 41.7042 14.0482V12.444H41.423V14.0482H41.4244ZM40.2699 13.9432C40.2207 13.9854 40.1685 14.024 40.1137 14.0585C40.054 14.0257 39.999 13.9851 39.95 13.9377C39.8335 13.8455 39.7518 13.7159 39.7184 13.5704C39.7262 13.5578 39.7383 13.5484 39.7524 13.5441C39.9719 13.5216 40.1931 13.5238 40.4121 13.5506C40.428 13.5546 40.4427 13.5622 40.4553 13.5727C40.4679 13.5833 40.478 13.5965 40.4848 13.6115C40.4586 13.7456 40.3818 13.8643 40.2705 13.9425L40.2699 13.9432Z" fill="#58595B"/>
<path fill-rule="evenodd" clip-rule="evenodd" d="M14.918 16.8776C14.918 16.3084 15.2154 15.9295 15.665 15.9295C15.7898 15.9286 15.9119 15.9653 16.0159 16.0348C16.1199 16.1043 16.2009 16.2035 16.2487 16.3197L16.0012 16.4347C15.974 16.3667 15.9277 16.3082 15.8679 16.2664C15.8082 16.2245 15.7377 16.2012 15.665 16.1992C15.4035 16.1992 15.2276 16.4603 15.2276 16.8776C15.2276 17.2948 15.4035 17.5573 15.665 17.5573C15.7222 17.5579 15.7789 17.5464 15.8315 17.5237C15.8841 17.501 15.9315 17.4676 15.9706 17.4256V17.0833H15.5852V16.8177H16.2599V17.5457C16.1885 17.6352 16.0978 17.7073 15.9948 17.7564C15.8917 17.8055 15.779 17.8305 15.665 17.8294C15.2137 17.8294 14.918 17.4437 14.918 16.8776ZM16.5479 17.1285C16.5368 17.0445 16.543 16.9591 16.5662 16.8777C16.5893 16.7962 16.6289 16.7204 16.6824 16.6551C16.7359 16.5898 16.8022 16.5363 16.8771 16.4979C16.9521 16.4596 17.0341 16.4372 17.118 16.4323C17.4786 16.4323 17.6715 16.7372 17.6715 17.1398V17.2195H16.8263C16.8227 17.2679 16.8289 17.3165 16.8447 17.3624C16.8604 17.4083 16.8853 17.4504 16.9178 17.4862C16.9503 17.522 16.9898 17.5507 17.0337 17.5705C17.0777 17.5903 17.1252 17.6009 17.1733 17.6015C17.2303 17.5999 17.2863 17.5864 17.3379 17.5619C17.3894 17.5374 17.4354 17.5024 17.4728 17.4591L17.6059 17.6231C17.5184 17.72 17.4024 17.7863 17.2749 17.8122C17.1474 17.8382 17.015 17.8224 16.897 17.7673C16.779 17.7122 16.6815 17.6205 16.6187 17.5057C16.5559 17.3909 16.5311 17.2585 16.5479 17.1285ZM17.1156 16.6551C17.0289 16.6662 16.9499 16.7109 16.8954 16.7797C16.8409 16.8485 16.8151 16.9361 16.8236 17.0237H17.4042C17.4103 16.9803 17.4075 16.936 17.3961 16.8937C17.3847 16.8513 17.3649 16.8118 17.338 16.7773C17.311 16.7429 17.2774 16.7143 17.2392 16.6933C17.201 16.6723 17.1589 16.6593 17.1156 16.6551ZM18.7098 17.7942V16.8892C18.7156 16.8618 18.715 16.8334 18.7078 16.8063C18.7007 16.7793 18.6873 16.7543 18.6688 16.7334C18.6502 16.7125 18.6271 16.6963 18.6012 16.6862C18.5753 16.676 18.5474 16.6722 18.5197 16.6749C18.4624 16.6791 18.4071 16.6983 18.3595 16.7307C18.3118 16.7631 18.2734 16.8074 18.248 16.8594V17.7945H17.973V16.4665H18.248V16.6441C18.2917 16.5812 18.3494 16.5293 18.4164 16.4926C18.4834 16.456 18.5579 16.4356 18.6341 16.433C18.6821 16.4271 18.7308 16.4324 18.7764 16.4486C18.822 16.4648 18.8633 16.4913 18.897 16.5262C18.9308 16.561 18.9562 16.6033 18.9711 16.6496C18.986 16.696 18.9902 16.7452 18.9832 16.7934V17.7949H18.7081L18.7098 17.7942ZM19.2993 17.1288C19.2883 17.0449 19.2945 16.9595 19.3176 16.8781C19.3407 16.7967 19.3802 16.721 19.4336 16.6557C19.487 16.5904 19.5533 16.5368 19.6281 16.4985C19.703 16.4601 19.7849 16.4377 19.8688 16.4326C20.2297 16.4326 20.4229 16.7376 20.4229 17.1401V17.2199H19.5771C19.5736 17.2682 19.5799 17.3168 19.5957 17.3626C19.6114 17.4085 19.6363 17.4505 19.6688 17.4863C19.7013 17.5221 19.7407 17.5508 19.7846 17.5706C19.8285 17.5905 19.876 17.6011 19.9241 17.6018C19.9812 17.6003 20.0373 17.5869 20.0889 17.5624C20.1405 17.5379 20.1865 17.5028 20.2239 17.4594L20.3564 17.6234C20.2692 17.7211 20.1532 17.7881 20.0255 17.8144C19.8977 17.8408 19.765 17.8252 19.6467 17.7699C19.5284 17.7146 19.4309 17.6225 19.3683 17.5072C19.3058 17.3919 19.2816 17.259 19.2993 17.1288ZM19.8664 16.6554C19.7797 16.6664 19.7007 16.7111 19.6462 16.78C19.5917 16.8488 19.5661 16.9364 19.5747 17.0241H20.1557C20.1617 16.9806 20.1589 16.9363 20.1475 16.8939C20.1361 16.8515 20.1162 16.8119 20.0892 16.7774C20.0622 16.743 20.0285 16.7144 19.9902 16.6934C19.9519 16.6725 19.9098 16.6595 19.8664 16.6554ZM20.7258 17.7945V16.4665H21.0009V16.6609C21.0384 16.5955 21.0916 16.5406 21.1556 16.5012C21.2196 16.4618 21.2924 16.4391 21.3673 16.4354V16.7092C21.3437 16.704 21.3197 16.7013 21.2956 16.7013C21.2354 16.7056 21.1772 16.7246 21.1259 16.7565C21.0745 16.7885 21.0317 16.8325 21.0009 16.8848V17.7956H20.7258V17.7945ZM22.3177 17.7945V17.659C22.2762 17.7123 22.2229 17.7551 22.1622 17.7841C22.1014 17.8131 22.0348 17.8274 21.9676 17.826C21.9113 17.8262 21.8556 17.8146 21.804 17.792C21.7524 17.7694 21.706 17.7363 21.6677 17.6947C21.6294 17.6531 21.6001 17.604 21.5816 17.5504C21.5631 17.4969 21.5558 17.44 21.5601 17.3835C21.5555 17.3274 21.5628 17.271 21.5814 17.218C21.5999 17.1649 21.6294 17.1164 21.6679 17.0757C21.7064 17.035 21.753 17.0029 21.8046 16.9816C21.8563 16.9603 21.9118 16.9503 21.9676 16.9522C22.0341 16.9497 22.1004 16.9627 22.1611 16.9902C22.2218 17.0178 22.2754 17.0591 22.3177 17.111V16.9186C22.3206 16.884 22.3159 16.849 22.3038 16.8164C22.2917 16.7838 22.2726 16.7543 22.2478 16.7301C22.223 16.7059 22.1931 16.6876 22.1604 16.6764C22.1277 16.6653 22.0929 16.6616 22.0586 16.6657C21.9962 16.6665 21.9345 16.6803 21.8777 16.7065C21.8209 16.7326 21.7701 16.7703 21.7285 16.8173L21.6209 16.6243C21.7517 16.4979 21.9267 16.4286 22.1078 16.4316C22.1706 16.422 22.2347 16.4269 22.2953 16.4458C22.3559 16.4648 22.4115 16.4973 22.4578 16.541C22.5042 16.5846 22.5402 16.6383 22.5631 16.6979C22.586 16.7576 22.5952 16.8217 22.59 16.8854V17.7935H22.3184L22.3177 17.7945ZM22.3177 17.4913V17.29C22.2924 17.2454 22.256 17.2082 22.212 17.1821C22.168 17.1561 22.1181 17.142 22.0671 17.1415C22.0047 17.1455 21.9461 17.1734 21.9033 17.2194C21.8605 17.2654 21.8367 17.3261 21.8367 17.3891C21.8367 17.4522 21.8605 17.5128 21.9033 17.5588C21.9461 17.6048 22.0047 17.6327 22.0671 17.6367C22.1178 17.636 22.1674 17.6222 22.2113 17.5966C22.2552 17.5711 22.2918 17.5345 22.3177 17.4906M22.97 15.9592H23.2454V17.7938H22.97V15.9592ZM25.2396 17.7938L25.1405 17.4307H24.5371L24.4379 17.7938H24.1075L24.6552 15.9592H25.0213L25.5693 17.7938H25.2396ZM24.8396 16.2844L24.6019 17.1613H25.0814L24.8396 16.2844ZM26.5119 17.7938V17.6179C26.4681 17.6812 26.41 17.7331 26.3425 17.7693C26.2749 17.8056 26.1997 17.8251 26.1232 17.8264C26.0755 17.8326 26.027 17.8275 25.9815 17.8117C25.9361 17.7958 25.8949 17.7695 25.8613 17.7348C25.8277 17.7002 25.8025 17.6582 25.7877 17.612C25.7729 17.5659 25.7689 17.517 25.7761 17.469V16.4655H26.0512V17.3732C26.0457 17.4004 26.0466 17.4285 26.0539 17.4553C26.0612 17.482 26.0747 17.5067 26.0932 17.5272C26.1117 17.5477 26.1348 17.5636 26.1605 17.5735C26.1863 17.5833 26.2139 17.587 26.2413 17.584C26.2981 17.5796 26.3528 17.5606 26.4003 17.529C26.4478 17.4974 26.4866 17.4542 26.513 17.4033V16.4655H26.7883V17.7935H26.513L26.5119 17.7938ZM27.2165 17.4964V16.704H27.043V16.4644H27.2165V16.102H27.4919V16.4651H27.7126V16.7047H27.4919V17.4392C27.4919 17.5303 27.5221 17.5847 27.5938 17.5847C27.6133 17.5854 27.6328 17.5818 27.6509 17.5742C27.6689 17.5665 27.6851 17.5551 27.6984 17.5406L27.7643 17.7459C27.6984 17.8028 27.613 17.8312 27.5266 17.825C27.4832 17.83 27.4393 17.8247 27.3983 17.8095C27.3573 17.7944 27.3204 17.7698 27.2904 17.7378C27.2605 17.7058 27.2384 17.6672 27.2259 17.625C27.2133 17.5829 27.2107 17.5384 27.2182 17.495M28.7412 17.7925V16.8831C28.7463 16.8557 28.745 16.8276 28.7374 16.8009C28.7297 16.7741 28.7159 16.7496 28.6971 16.7293C28.6783 16.7089 28.655 16.6934 28.629 16.6838C28.6031 16.6742 28.5754 16.671 28.548 16.6743C28.4912 16.6795 28.4368 16.6992 28.3897 16.7315C28.3426 16.7637 28.3044 16.8075 28.2787 16.8587V17.7938H28.003V15.9592H28.2787V16.6438C28.3228 16.5807 28.3808 16.5288 28.4481 16.4922C28.5154 16.4556 28.5903 16.4352 28.6668 16.4326C28.7146 16.4262 28.7631 16.4311 28.8087 16.4469C28.8542 16.4627 28.8955 16.489 28.9292 16.5237C28.9629 16.5583 28.9881 16.6005 29.0029 16.6467C29.0176 16.6929 29.0215 16.742 29.0142 16.79V17.7945H28.7425L28.7412 17.7925ZM29.3283 17.1271C29.3487 17.017 29.3997 16.915 29.4755 16.833C29.5513 16.7511 29.6487 16.6926 29.7563 16.6645C29.8638 16.6363 29.9771 16.6396 30.0829 16.6739C30.1887 16.7083 30.2825 16.7723 30.3535 16.8585C30.4245 16.9447 30.4697 17.0495 30.4838 17.1606C30.4978 17.2717 30.4802 17.3846 30.433 17.486C30.3857 17.5874 30.3108 17.6731 30.217 17.7332C30.1231 17.7932 30.0143 17.825 29.9031 17.825C29.8185 17.8211 29.7357 17.7994 29.6599 17.7613C29.584 17.7233 29.5169 17.6697 29.4628 17.604C29.4087 17.5383 29.3688 17.462 29.3456 17.3798C29.3225 17.2977 29.3166 17.2116 29.3283 17.1271ZM30.1952 17.1271C30.1714 17.0743 30.134 17.0289 30.0869 16.9957C30.0397 16.9624 29.9845 16.9426 29.9272 16.9384C29.8698 16.9341 29.8123 16.9454 29.7608 16.9713C29.7093 16.9971 29.6657 17.0364 29.6345 17.0852C29.6033 17.1339 29.5857 17.1902 29.5835 17.2481C29.5813 17.3061 29.5947 17.3635 29.6222 17.4145C29.6497 17.4654 29.6903 17.508 29.7397 17.5376C29.7892 17.5673 29.8456 17.5829 29.9031 17.583C29.9525 17.5733 29.9994 17.5537 30.041 17.5253C30.0826 17.4968 30.1181 17.4603 30.1454 17.4177C30.1727 17.3751 30.1911 17.3274 30.1997 17.2775C30.2082 17.2276 30.2067 17.1764 30.1952 17.1271ZM30.7928 17.7925V16.4644H31.0682V16.6589C31.1056 16.5934 31.1588 16.5384 31.2228 16.499C31.2869 16.4596 31.3597 16.437 31.4346 16.4333V16.7071C31.4109 16.7019 31.3868 16.6992 31.3626 16.6992C31.3025 16.7036 31.2443 16.7226 31.193 16.7545C31.1418 16.7865 31.0989 16.8305 31.0682 16.8827V17.7935H30.7914L30.7928 17.7925ZM31.6604 16.1256C31.6608 16.0795 31.6793 16.0354 31.7118 16.0029C31.7443 15.9704 31.7881 15.9521 31.8339 15.9521C31.8672 15.9528 31.8996 15.9634 31.9269 15.9826C31.9543 16.0017 31.9755 16.0285 31.9878 16.0597C32.0002 16.0909 32.0031 16.1251 31.9964 16.158C31.9896 16.1908 31.9734 16.221 31.9497 16.2446C31.9261 16.2683 31.896 16.2844 31.8634 16.291C31.8307 16.2976 31.7968 16.2943 31.766 16.2816C31.7351 16.2689 31.7087 16.2474 31.6899 16.2196C31.6711 16.1919 31.6609 16.1592 31.6604 16.1256ZM31.6943 16.4641H31.9697V17.7921H31.6943V16.4641ZM32.3996 17.4947V16.704H32.2261V16.4644H32.401V16.102H32.6763V16.4651H32.8967V16.7047H32.6763V17.4392C32.6763 17.5303 32.7072 17.5847 32.7782 17.5847C32.7978 17.5853 32.8173 17.5816 32.8354 17.574C32.8535 17.5664 32.8698 17.555 32.8831 17.5406L32.949 17.7459C32.8831 17.8027 32.7978 17.8311 32.7113 17.825C32.6679 17.8301 32.6239 17.8249 32.5828 17.8098C32.5418 17.7947 32.5047 17.7702 32.4747 17.7381C32.4447 17.7061 32.4226 17.6674 32.41 17.6252C32.3974 17.583 32.3948 17.5384 32.4023 17.495M33.1816 18.0697C33.2091 18.0829 33.2391 18.0897 33.2696 18.0896C33.3038 18.0928 33.338 18.0833 33.3658 18.063C33.3936 18.0426 33.4131 18.0128 33.4207 17.979L33.4764 17.8202L33.0302 16.4648H33.3225L33.6169 17.4625L33.9144 16.4648H34.2061L33.6804 18.0427C33.6615 18.1307 33.6112 18.2086 33.5391 18.2618C33.4671 18.3149 33.3782 18.3396 33.2893 18.3312C33.2392 18.3308 33.1894 18.3245 33.1409 18.3124L33.1816 18.0697ZM34.9993 17.1271C35.0197 17.017 35.0707 16.915 35.1465 16.8331C35.2223 16.7512 35.3196 16.6927 35.4272 16.6645C35.5347 16.6363 35.648 16.6396 35.7538 16.6739C35.8595 16.7082 35.9534 16.7722 36.0244 16.8584C36.0954 16.9445 36.1407 17.0493 36.1548 17.1604C36.1689 17.2715 36.1513 17.3844 36.1041 17.4858C36.0569 17.5872 35.982 17.6729 35.8882 17.733C35.7944 17.7931 35.6856 17.825 35.5745 17.825C35.4899 17.821 35.4071 17.7993 35.3313 17.7612C35.2554 17.7231 35.1883 17.6696 35.1342 17.6039C35.0801 17.5382 35.0401 17.4619 35.0169 17.3798C34.9937 17.2977 34.9877 17.2117 34.9993 17.1271ZM35.8665 17.1271C35.8428 17.0743 35.8054 17.0289 35.7582 16.9957C35.7111 16.9624 35.6559 16.9426 35.5985 16.9384C35.5411 16.9341 35.4837 16.9454 35.4322 16.9713C35.3807 16.9971 35.337 17.0364 35.3058 17.0852C35.2746 17.1339 35.257 17.1902 35.2549 17.2481C35.2527 17.3061 35.2661 17.3635 35.2936 17.4145C35.321 17.4654 35.3616 17.508 35.4111 17.5376C35.4605 17.5673 35.517 17.5829 35.5745 17.583C35.6238 17.5733 35.6707 17.5537 35.7124 17.5253C35.754 17.4968 35.7895 17.4603 35.8168 17.4177C35.844 17.3751 35.8625 17.3274 35.871 17.2775C35.8796 17.2276 35.8781 17.1764 35.8665 17.1271ZM36.5192 17.7925V16.704H36.346V16.4644H36.5192V16.3416C36.5124 16.2889 36.5172 16.2355 36.5331 16.1849C36.549 16.1343 36.5757 16.0879 36.6113 16.0487C36.6468 16.0096 36.6904 15.9788 36.739 15.9584C36.7877 15.9381 36.8401 15.9287 36.8927 15.9308C36.9905 15.9269 37.0861 15.9608 37.1599 16.0256L37.0662 16.2173C37.0505 16.1999 37.0314 16.1859 37.01 16.1765C36.9887 16.167 36.9656 16.1621 36.9423 16.1622C36.92 16.1618 36.8979 16.1664 36.8777 16.1757C36.8574 16.185 36.8395 16.1987 36.8252 16.216C36.811 16.2332 36.8007 16.2534 36.7952 16.2751C36.7897 16.2969 36.7891 16.3196 36.7935 16.3416V16.4651H37.0136V16.7047H36.7935V17.7942H36.5164L36.5192 17.7925ZM37.858 16.8762C37.858 16.3241 38.1467 15.9281 38.6071 15.9281C38.7332 15.9281 38.8563 15.9667 38.96 16.039C39.0637 16.1112 39.1432 16.2135 39.1878 16.3323L38.9345 16.4446C38.9108 16.3751 38.8669 16.3144 38.8085 16.2703C38.7501 16.2263 38.68 16.2011 38.6071 16.1978C38.3355 16.1978 38.1691 16.4833 38.1691 16.8762C38.1691 17.2691 38.3368 17.5532 38.6071 17.5532C38.6833 17.5489 38.7561 17.5205 38.8154 17.4721C38.8746 17.4237 38.9172 17.3577 38.9372 17.2835L39.1905 17.3968C39.1497 17.5206 39.0716 17.6285 38.967 17.7053C38.8624 17.782 38.7365 17.8239 38.6071 17.825C38.1467 17.825 37.858 17.4266 37.858 16.8762ZM39.438 16.1256C39.4387 16.0795 39.4572 16.0354 39.4897 16.003C39.5223 15.9705 39.5661 15.9522 39.6119 15.9521C39.6572 15.9521 39.7007 15.9702 39.7328 16.0025C39.7648 16.0349 39.7829 16.0787 39.7829 16.1244C39.7829 16.1701 39.7648 16.2139 39.7328 16.2463C39.7007 16.2786 39.6572 16.2967 39.6119 16.2967C39.5665 16.2967 39.5229 16.2788 39.4904 16.2469C39.4579 16.2149 39.4391 16.1714 39.438 16.1256ZM39.4744 16.4641H39.7498V17.7921H39.4744V16.4641ZM40.4105 17.7921L39.9725 16.4641H40.2649L40.5593 17.4649L40.8564 16.4641H41.1484L40.707 17.7921H40.4078H40.4105ZM41.3331 16.1253C41.3336 16.0791 41.352 16.035 41.3845 16.0026C41.417 15.9701 41.4609 15.9518 41.5066 15.9517C41.5399 15.9525 41.5723 15.9631 41.5997 15.9822C41.627 16.0014 41.6482 16.0282 41.6606 16.0594C41.6729 16.0906 41.6759 16.1247 41.6691 16.1576C41.6623 16.1905 41.6461 16.2206 41.6225 16.2443C41.5988 16.268 41.5688 16.2841 41.5361 16.2906C41.5034 16.2972 41.4696 16.294 41.4387 16.2813C41.4079 16.2686 41.3814 16.247 41.3626 16.2193C41.3439 16.1915 41.3336 16.1588 41.3331 16.1253ZM41.3695 16.4638H41.6442V17.7918H41.3654V16.4638H41.3695ZM42.0245 15.9572H42.2998V17.7918H42.0245V15.9572ZM44.2934 17.7918L44.1943 17.4286H43.5909L43.4921 17.7918H43.162L43.7097 15.9572H44.0758L44.6238 17.7918H44.2934ZM43.8937 16.2824L43.6561 17.1593H44.1352L43.8937 16.2824ZM45.089 17.7918L44.6517 16.4638H44.9433L45.2364 17.4663L45.5332 16.4655H45.8259L45.3844 17.7935H45.0866L45.089 17.7918ZM46.0119 16.1249C46.0126 16.0788 46.0311 16.0348 46.0636 16.0023C46.0962 15.9698 46.14 15.9516 46.1858 15.9514C46.2191 15.9522 46.2514 15.9628 46.2787 15.982C46.3061 16.0012 46.3272 16.0281 46.3395 16.0593C46.3518 16.0905 46.3547 16.1246 46.3479 16.1575C46.3411 16.1903 46.3248 16.2204 46.3012 16.2441C46.2775 16.2677 46.2475 16.2838 46.2148 16.2903C46.1821 16.2969 46.1483 16.2936 46.1175 16.2809C46.0866 16.2682 46.0602 16.2466 46.0414 16.2189C46.0227 16.1912 46.0124 16.1585 46.0119 16.1249ZM46.0459 16.4634H46.3216V17.7915H46.0459V16.4634ZM47.3895 17.7915V17.659C47.3481 17.7123 47.2949 17.7551 47.2342 17.7841C47.1735 17.8131 47.1069 17.8274 47.0398 17.826C46.9835 17.8262 46.9278 17.8146 46.8762 17.792C46.8246 17.7694 46.7782 17.7363 46.7399 17.6947C46.7016 17.6531 46.6723 17.604 46.6538 17.5504C46.6353 17.4969 46.628 17.44 46.6323 17.3835C46.6278 17.3274 46.6351 17.271 46.6537 17.218C46.6723 17.165 46.7018 17.1166 46.7402 17.0758C46.7787 17.0351 46.8253 17.0031 46.8769 16.9817C46.9285 16.9604 46.984 16.9504 47.0398 16.9522C47.1063 16.9497 47.1725 16.9627 47.2331 16.9903C47.2938 17.0178 47.3473 17.0591 47.3895 17.111V16.9186C47.3926 16.884 47.3879 16.8491 47.3758 16.8165C47.3638 16.7838 47.3446 16.7544 47.3199 16.7301C47.2951 16.7059 47.2653 16.6875 47.2325 16.6764C47.1998 16.6653 47.1651 16.6616 47.1308 16.6657C47.0683 16.6665 47.0067 16.6804 46.9498 16.7065C46.8929 16.7326 46.842 16.7704 46.8004 16.8173L46.6931 16.6243C46.8242 16.498 46.9994 16.4288 47.1807 16.4316C47.2434 16.422 47.3075 16.4269 47.368 16.4458C47.4286 16.4647 47.4841 16.4973 47.5304 16.541C47.5767 16.5846 47.6126 16.6383 47.6354 16.698C47.6581 16.7577 47.6672 16.8217 47.6619 16.8854V17.7935H47.3902L47.3895 17.7915ZM47.3895 17.4882V17.29C47.3645 17.2453 47.3282 17.2081 47.2843 17.182C47.2405 17.1559 47.1906 17.1419 47.1396 17.1415C47.0772 17.1455 47.0187 17.1734 46.9759 17.2194C46.9331 17.2654 46.9093 17.3261 46.9093 17.3891C46.9093 17.4522 46.9331 17.5128 46.9759 17.5588C47.0187 17.6048 47.0772 17.6327 47.1396 17.6367C47.1902 17.6362 47.2399 17.6224 47.2836 17.5968C47.3274 17.5712 47.3639 17.5346 47.3895 17.4906M48.0917 17.4964V16.704H47.9189V16.4644H48.0917V16.102H48.3675V16.4651H48.5882V16.7047H48.3675V17.4392C48.3675 17.5303 48.398 17.5847 48.4693 17.5847C48.4889 17.5854 48.5084 17.5818 48.5264 17.5742C48.5445 17.5665 48.5607 17.5551 48.5739 17.5406L48.6401 17.7459C48.5742 17.8025 48.4889 17.8309 48.4025 17.825C48.359 17.8301 48.315 17.825 48.2738 17.8099C48.2327 17.7949 48.1957 17.7703 48.1656 17.7383C48.1356 17.7062 48.1134 17.6676 48.1008 17.6253C48.0882 17.5831 48.0856 17.5385 48.0931 17.495M48.8425 16.1259C48.8431 16.0799 48.8615 16.0359 48.8939 16.0035C48.9263 15.971 48.97 15.9527 49.0157 15.9524C49.049 15.9531 49.0814 15.9636 49.1088 15.9827C49.1362 16.0018 49.1575 16.0287 49.1699 16.0598C49.1823 16.091 49.1853 16.1252 49.1786 16.1581C49.1718 16.191 49.1556 16.2212 49.132 16.2449C49.1083 16.2686 49.0783 16.2847 49.0456 16.2913C49.0129 16.2979 48.9791 16.2947 48.9482 16.282C48.9173 16.2693 48.8909 16.2477 48.8721 16.22C48.8533 16.1922 48.843 16.1595 48.8425 16.1259ZM48.8782 16.4644H49.1539V17.7925H48.8782V16.4644ZM49.4677 17.1271C49.488 17.017 49.5389 16.9149 49.6147 16.8329C49.6904 16.7509 49.7877 16.6923 49.8952 16.664C50.0027 16.6357 50.116 16.6388 50.2218 16.673C50.3277 16.7072 50.4217 16.771 50.4928 16.857C50.564 16.9431 50.6094 17.0478 50.6237 17.1588C50.6381 17.2699 50.6207 17.3828 50.5737 17.4844C50.5267 17.5859 50.4521 17.6718 50.3584 17.7321C50.2648 17.7925 50.156 17.8247 50.0449 17.825C49.9601 17.8213 49.877 17.7998 49.8009 17.7619C49.7249 17.724 49.6575 17.6704 49.6032 17.6047C49.5488 17.539 49.5087 17.4626 49.4853 17.3803C49.462 17.2981 49.456 17.2118 49.4677 17.1271ZM50.3349 17.1271C50.3112 17.0742 50.2737 17.0288 50.2265 16.9956C50.1793 16.9624 50.1241 16.9426 50.0667 16.9383C50.0093 16.9341 49.9518 16.9455 49.9003 16.9714C49.8488 16.9973 49.8052 17.0367 49.774 17.0855C49.7428 17.1342 49.7253 17.1906 49.7232 17.2486C49.7211 17.3065 49.7346 17.364 49.7622 17.4149C49.7898 17.4659 49.8304 17.5083 49.88 17.5379C49.9295 17.5675 49.986 17.5831 50.0436 17.583C50.0928 17.5732 50.1396 17.5535 50.1812 17.5251C50.2227 17.4966 50.2582 17.46 50.2854 17.4175C50.3126 17.3749 50.331 17.3273 50.3395 17.2774C50.348 17.2275 50.3464 17.1764 50.3349 17.1271ZM51.6683 17.7925V16.8892C51.6741 16.8618 51.6735 16.8334 51.6663 16.8063C51.6592 16.7793 51.6458 16.7543 51.6273 16.7334C51.6087 16.7125 51.5856 16.6963 51.5597 16.6862C51.5338 16.676 51.5058 16.6722 51.4782 16.6749C51.4208 16.6789 51.3655 16.6981 51.3178 16.7305C51.2701 16.7629 51.2318 16.8073 51.2065 16.8594V17.7945H50.9308V16.4665H51.2065V16.6441C51.25 16.5812 51.3075 16.5293 51.3743 16.4927C51.4412 16.456 51.5156 16.4356 51.5916 16.433C51.6396 16.427 51.6884 16.4324 51.7341 16.4485C51.7797 16.4647 51.8211 16.4912 51.8549 16.526C51.8888 16.5609 51.9142 16.6031 51.9293 16.6495C51.9443 16.6959 51.9486 16.7451 51.9417 16.7934V17.7949H51.6667L51.6683 17.7925Z" fill="#58595B"/>
<path fill-rule="evenodd" clip-rule="evenodd" d="M51.3935 1.94995C51.621 1.9495 51.8391 1.85806 51.9999 1.69571C52.1606 1.53336 52.2509 1.31336 52.2509 1.08399C52.2464 0.857531 52.154 0.641866 51.9936 0.483304C51.8331 0.324742 51.6174 0.235925 51.3926 0.235925C51.1679 0.235925 50.9522 0.324742 50.7917 0.483304C50.6313 0.641866 50.5389 0.857531 50.5344 1.08399C50.5343 1.19775 50.5564 1.31041 50.5995 1.41554C50.6427 1.52066 50.7059 1.61618 50.7857 1.69662C50.8655 1.77706 50.9603 1.84084 51.0646 1.88431C51.1689 1.92778 51.2806 1.95008 51.3935 1.94995ZM51.3935 0.388828C51.4838 0.388067 51.5734 0.405619 51.6568 0.440441C51.7403 0.475263 51.8159 0.526643 51.8793 0.591527C51.9426 0.65641 51.9924 0.733473 52.0256 0.818132C52.0588 0.902792 52.0748 0.99332 52.0726 1.08433C52.0711 1.22012 52.0297 1.3524 51.9537 1.46451C51.8776 1.57661 51.7704 1.66352 51.6454 1.71426C51.5205 1.76501 51.3834 1.77733 51.2515 1.74966C51.1196 1.722 50.9988 1.65559 50.9043 1.55881C50.8098 1.46203 50.7458 1.33921 50.7205 1.20584C50.6951 1.07247 50.7095 0.934524 50.7619 0.80939C50.8142 0.684255 50.9021 0.577538 51.0145 0.502693C51.1269 0.427849 51.2588 0.388228 51.3935 0.388828ZM51.2268 1.53477V1.1764H51.4393L51.6183 1.53477H51.8023L51.6017 1.14457C51.6586 1.11746 51.7047 1.07156 51.7322 1.01446C51.7597 0.957366 51.7671 0.892505 51.7531 0.830615C51.739 0.768725 51.7045 0.713519 51.6551 0.674134C51.6057 0.63475 51.5444 0.613551 51.4814 0.614046H51.1986C51.1808 0.61135 51.1626 0.612707 51.1454 0.618017C51.1282 0.623328 51.1124 0.632458 51.0991 0.644736C51.0859 0.657013 51.0755 0.672127 51.0688 0.688968C51.0621 0.705809 51.0592 0.72395 51.0604 0.742057V1.53443H51.2251L51.2268 1.53477ZM51.2295 0.760539H51.4672C51.4844 0.759496 51.5016 0.762198 51.5177 0.76846C51.5338 0.774723 51.5484 0.7844 51.5604 0.796834C51.5724 0.809269 51.5817 0.82417 51.5875 0.840526C51.5934 0.856883 51.5956 0.874313 51.5942 0.891632C51.5951 0.909844 51.5921 0.928039 51.5856 0.945048C51.5791 0.962058 51.5691 0.977505 51.5563 0.990399C51.5435 1.00329 51.5282 1.01335 51.5114 1.01991C51.4945 1.02648 51.4764 1.02942 51.4584 1.02854H51.2288V0.760197L51.2295 0.760539ZM19.1223 1.93181C20.9182 1.93181 21.143 3.79619 21.143 3.79619L23.2822 3.2903C23.2693 3.23656 22.8989 0.0130086 19.1226 0.0130086C16.7854 0.0130086 14.6064 1.45057 14.6064 5.12832C14.6064 8.77767 16.9036 10.1766 19.2812 10.1766C20.3807 10.1903 21.4659 9.92474 22.4367 9.40438C22.9518 9.09804 23.2422 8.8054 23.2422 8.17937V5.92925C23.2483 5.79659 23.2255 5.66418 23.1755 5.54132C23.1254 5.41846 23.0494 5.30811 22.9526 5.21801C22.8558 5.12791 22.7406 5.06024 22.6151 5.01974C22.4897 4.97923 22.3569 4.96688 22.2262 4.98354H19.2921V6.6494H21.1257V7.94081C20.5832 8.25034 19.9664 8.40278 19.3433 8.38132C18.142 8.38132 16.8873 7.64816 16.8873 5.12969C16.8873 2.66531 17.9834 1.93352 19.1192 1.93352M28.6269 0.00137111C27.7285 0.00137111 27.1872 0.388144 26.9234 1.18667L24.0198 10.0438H26.3162C26.49 10.0306 26.6537 9.95605 26.7784 9.83325L29.5424 7.07827C29.5998 7.02043 29.5842 6.99304 29.5183 6.99304H29.1448C28.9916 6.9917 28.841 7.03215 28.7088 7.1101L26.8487 8.18827L28.6144 2.16969C28.6144 2.16969 30.7132 9.45606 30.8847 10.042H33.2487L30.3831 1.17059C30.1455 0.425451 29.539 -0.00170898 28.6276 -0.00170898M38.1217 1.9034C39.9173 1.9034 40.1557 3.90161 40.1557 3.90161L42.2949 3.44843C42.2949 3.44843 41.9785 0.0150625 38.1228 0.0150625C35.7856 0.0150625 33.6066 1.41463 33.6066 5.09136C33.6066 8.74002 35.772 10.1913 38.1095 10.1913C41.8858 10.1913 42.2956 6.83457 42.2956 6.83457L40.1564 6.36805C40.1564 6.36805 39.9836 8.29917 38.1489 8.29917C37.0138 8.29917 35.9041 7.56636 35.9041 5.08965C35.9041 2.62526 36.9866 1.90648 38.1224 1.90648M47.4461 0.00137111C46.5476 0.00137111 46.0057 0.388144 45.7418 1.18667L42.8372 10.0438H45.1337C45.3075 10.0307 45.4712 9.95613 45.5958 9.83325L48.3605 7.07827C48.4176 7.02043 48.4016 6.99304 48.3357 6.99304H47.9622C47.8091 6.9917 47.6584 7.03215 47.5262 7.1101L45.6661 8.18827L47.4318 2.16969C47.4318 2.16969 49.5317 9.45606 49.7032 10.042H52.0672L49.2016 1.17059C48.9639 0.425451 48.3565 -0.00170898 47.4458 -0.00170898" fill="#274479"/>
<path fill-rule="evenodd" clip-rule="evenodd" d="M13.8847 10.071C13.9017 10.0694 13.9175 10.0611 13.9285 10.0479C13.9396 10.0348 13.9452 10.0178 13.9441 10.0005C13.9451 9.98707 13.9426 9.97358 13.9366 9.96152C13.9306 9.94945 13.9214 9.93926 13.9101 9.93206C13.3025 9.73 12.7658 9.35511 12.3647 8.85257C11.9636 8.35003 11.7153 7.74129 11.6497 7.09973L11.1064 3.19778C10.8537 1.38543 9.52978 0.149468 7.98613 0.120032H0.0566873C0.0490993 0.119757 0.0415331 0.12102 0.0344388 0.123748C0.0273445 0.126476 0.0208711 0.130613 0.0153924 0.135912C0.00991367 0.141211 0.0055497 0.147565 0.00255312 0.154597C-0.000443467 0.16163 -0.00200731 0.169197 -0.00204787 0.17685C-0.00429512 0.190414 -0.00222154 0.204346 0.00387953 0.216646C0.00998059 0.228946 0.0197868 0.238979 0.0319 0.245305C0.640191 0.449886 1.17704 0.826961 1.57809 1.33133C1.97914 1.83569 2.22738 2.44595 2.29304 3.08893L2.83634 6.99088C3.08897 8.79639 4.4119 10.0392 5.95555 10.0751L13.8847 10.071ZM10.5026 8.40277H9.08936C8.93238 8.41731 8.77456 8.38606 8.63469 8.31275L7.66966 7.79523L8.22722 7.49745L10.5097 8.37436C10.5434 8.38942 10.5434 8.40277 10.5026 8.40277ZM9.38206 4.28964C9.37859 4.29398 9.37363 4.29684 9.36816 4.29767C9.36269 4.29849 9.3571 4.29721 9.35252 4.29409C8.90639 4.03758 8.43547 3.8276 7.94707 3.66738C7.88663 3.64753 7.80073 3.61809 7.72127 3.59893C7.68732 5.20968 7.53689 6.46172 7.38171 6.46344C7.22653 6.46515 7.07611 5.20968 7.04215 3.59893C6.96235 3.61775 6.87678 3.64753 6.81634 3.66738C6.32784 3.8276 5.8568 4.03758 5.41055 4.29409C5.40605 4.29727 5.40051 4.29859 5.39507 4.29776C5.38963 4.29693 5.38472 4.29402 5.38135 4.28964C5.37902 4.28631 5.37761 4.28241 5.37728 4.27834C5.36084 4.19547 5.36461 4.1098 5.38827 4.02872C5.41193 3.94764 5.45476 3.87356 5.5131 3.81285C5.65383 3.68303 5.80654 3.56704 5.96914 3.46647C6.16524 3.33647 6.37106 3.22203 6.58476 3.12419C6.64112 3.09749 6.71209 3.06498 6.76778 3.04136C6.41309 2.84246 6.04024 2.67843 5.65436 2.55156C5.65215 2.551 5.65007 2.55001 5.64825 2.54864C5.64642 2.54727 5.64488 2.54555 5.64371 2.54358C5.64254 2.54161 5.64178 2.53942 5.64145 2.53715C5.64112 2.53488 5.64123 2.53257 5.64179 2.53034C5.64268 2.52709 5.64459 2.52421 5.64723 2.52213C5.69176 2.47087 5.74736 2.4306 5.80977 2.40443C5.87217 2.37826 5.93971 2.36689 6.00717 2.37118C6.13324 2.38779 6.25803 2.41307 6.38069 2.44682C6.51651 2.48105 6.65233 2.5187 6.78408 2.56251C6.86048 2.58784 6.93586 2.61488 7.01091 2.64466L7.04825 2.65904C7.09443 2.224 7.22687 1.90603 7.38239 1.90603C7.5379 1.90603 7.67034 2.22229 7.71652 2.65904L7.75386 2.64466C7.82857 2.61488 7.9043 2.58784 7.98036 2.56251C8.11347 2.5187 8.24804 2.48014 8.3841 2.44682C8.50675 2.41307 8.63155 2.38779 8.75762 2.37118C8.82507 2.36689 8.8926 2.37826 8.955 2.40443C9.01741 2.4306 9.07302 2.47087 9.11755 2.52213C9.12019 2.52421 9.12209 2.52709 9.12298 2.53034C9.12354 2.53257 9.12366 2.53488 9.12333 2.53715C9.123 2.53942 9.12223 2.54161 9.12106 2.54358C9.1199 2.54555 9.11835 2.54727 9.11652 2.54864C9.1147 2.55001 9.11263 2.551 9.11042 2.55156C8.72455 2.67843 8.35168 2.84246 7.99699 3.04136C8.05234 3.06463 8.12331 3.09715 8.18001 3.12419C8.39371 3.22203 8.59955 3.33647 8.79565 3.46647C8.95824 3.56704 9.11094 3.68303 9.25167 3.81285C9.30994 3.87361 9.35272 3.94769 9.37638 4.02876C9.40003 4.10983 9.40385 4.19546 9.3875 4.27834C9.38726 4.28237 9.38597 4.28627 9.38376 4.28964H9.38206ZM5.62855 6.66469L5.99052 6.66264C6.04135 6.66157 6.09195 6.66969 6.13993 6.6866L7.00445 7.02888L6.55555 7.20001L5.6221 6.69858C5.59018 6.67873 5.59018 6.66572 5.63025 6.66469H5.62855ZM8.73044 6.68694L9.0914 6.68968C9.13215 6.68968 9.13215 6.70406 9.09853 6.72391L6.12975 8.31378C5.98938 8.3867 5.83134 8.41792 5.67405 8.4038H4.26148C4.22108 8.4038 4.22107 8.39045 4.25469 8.37642L8.58104 6.71329C8.62926 6.69483 8.68057 6.68588 8.73214 6.68694H8.73044Z" fill="#0075C9"/>
</g>
<defs>
<clipPath id="clip0_77_136">
<rect width="52.25" height="18.3333" fill="white"/>
</clipPath>
</defs>
</svg>
